<svg xmlns="http://www.w3.org/2000/svg" width="150" height="90" viewBox="0 0 150 90">
  <path fill="#212121" fill-rule="nonzero" d="M116,36 L110,36 L110,35 L110,30 L88,30 L88,68 L116,68 L116,36 Z M115.585786,35 L111,30.4142136 L111,35 L115.585786,35 Z M134,21 L134,15 L16,15 L16,21 L134,21 Z M134,22 L16,22 L16,77 L134,77 L134,22 Z M15,14 L135,14 L135,78 L15,78 L15,14 Z M36,29 L59,29 L65,35 L65,68 C65,68.5522847 64.5522847,69 64,69 L36,69 C35.4477153,69 35,68.5522847 35,68 L35,30 C35,29.4477153 35.4477153,29 36,29 Z M58.5857864,30 L36,30 L36,68 L64,68 L64,35.4142136 L58.5857864,30 Z M88,29 L111,29 L117,35 L117,68 C117,68.5522847 116.552285,69 116,69 L88,69 C87.4477153,69 87,68.5522847 87,68 L87,30 C87,29.4477153 87.4477153,29 88,29 Z M93,46 L111,46 L111,47 L93,47 L93,46 Z M93,51 L111,51 L111,52 L93,52 L93,51 Z M105,56 L111,56 L111,57 L105,57 L105,56 Z M105,61 L111,61 L111,62 L105,62 L105,61 Z"/>
  <polygon fill="#BDBDBD" points="80.1 51 77.8 48.7 78.5 48 82 51.5 78.5 55 77.8 54.3 80.1 52 70 52 70 51"/>
  <path fill="#49C8F2" fill-rule="nonzero" d="M16,15 L67,15 L67,21 L16,21 L16,15 Z M143.57808,5.19464681 C143.83761,5.45417589 143.83761,5.87495567 143.57808,6.13448475 L142.180124,7.53244114 C141.920595,7.79197022 141.499815,7.79197022 141.240286,7.53244114 C140.980757,7.27291205 140.980757,6.85213228 141.240286,6.5926032 L142.638243,5.19464681 C142.897772,4.93511773 143.318551,4.93511773 143.57808,5.19464681 Z M140.305168,8.46755886 C140.564697,8.72708795 140.564697,9.14786772 140.305168,9.4073968 L138.907212,10.8053532 C138.647683,11.0648823 138.226903,11.0648823 137.967374,10.8053532 C137.707845,10.5458241 137.707845,10.1250443 137.967374,9.86551525 L139.36533,8.46755886 C139.62486,8.20802978 140.045639,8.20802978 140.305168,8.46755886 Z M143.57808,10.8053532 C143.318551,11.0648823 142.897772,11.0648823 142.638243,10.8053532 L141.240286,9.4073968 C140.980757,9.14786772 140.980757,8.72708795 141.240286,8.46755886 C141.499815,8.20802978 141.920595,8.20802978 142.180124,8.46755886 L143.57808,9.86551525 C143.83761,10.1250443 143.83761,10.5458241 143.57808,10.8053532 Z M140.305168,7.53244114 C140.045639,7.79197022 139.62486,7.79197022 139.36533,7.53244114 L137.967374,6.13448475 C137.707845,5.87495567 137.707845,5.45417589 137.967374,5.19464681 C138.226903,4.93511773 138.647683,4.93511773 138.907212,5.19464681 L140.305168,6.5926032 C140.564697,6.85213228 140.564697,7.27291205 140.305168,7.53244114 Z M8.5,17.5 L11,17.5 L11,18.5 L8.5,18.5 L8.5,21 L7.5,21 L7.5,18.5 L5,18.5 L5,17.5 L7.5,17.5 L7.5,15 L8.5,15 L8.5,17.5 Z M18.7727273,10 C17.115873,10 15.7727273,8.65685425 15.7727273,7 C15.7727273,5.34314575 17.115873,4 18.7727273,4 C20.4295815,4 21.7727273,5.34314575 21.7727273,7 C21.7727273,8.65685425 20.4295815,10 18.7727273,10 Z M18.7727273,9.04 C19.8993882,9.04 20.8127273,8.12666089 20.8127273,7 C20.8127273,5.87333911 19.8993882,4.96 18.7727273,4.96 C17.6460664,4.96 16.7327273,5.87333911 16.7327273,7 C16.7327273,8.12666089 17.6460664,9.04 18.7727273,9.04 Z M40,51 L59,51 L59,52 L40,52 L40,51 Z M40,46 L59,46 L59,47 L40,47 L40,46 Z M40,56 L59,56 L59,57 L40,57 L40,56 Z M40,61 L59,61 L59,62 L40,62 L40,61 Z M86,54 L102,54 C102.552285,54 103,54.4477153 103,55 L103,61 C103,61.5522847 102.552285,62 102,62 L86,62 C85.4477153,62 85,61.5522847 85,61 L85,55 C85,54.4477153 85.4477153,54 86,54 Z"/>
  <path fill="#FFFFFF" d="M22,15 L23,15 L19,21 L18,21 L22,15 Z M43,15 L44,15 L40,21 L39,21 L43,15 Z M29,15 L30,15 L26,21 L25,21 L29,15 Z M50,15 L51,15 L47,21 L46,21 L50,15 Z M36,15 L37,15 L33,21 L32,21 L36,15 Z M57,15 L58,15 L54,21 L53,21 L57,15 Z M64,15 L65,15 L61,21 L60,21 L64,15 Z"/>
</svg>
