<svg xmlns="http://www.w3.org/2000/svg" viewBox="0 0 96 60"><path fill="white" d="M61.9655252,3.24869071 L61.9765763,3.41278068 L61.976,5.864 L73.2405238,6.25793424 C74.5651997,6.30419294 75.6130942,7.37295092 75.6521743,8.67919891 L75.6517521,8.84366004 L73.9765763,56.8144197 C73.9303176,58.1390957 72.8615596,59.1869902 71.5553116,59.2260703 L71.3908505,59.2256481 L68.3103384,59.1184351 C68.030126,59.8845975 67.2946494,60.4314488 66.4314488,60.4314488 L30.4314488,60.4314488 C29.3268793,60.4314488 28.4314488,59.5360183 28.4314488,58.4314488 L28.431,55.114 L25.262454,55.2256481 C23.9377781,55.2719068 22.8178834,54.2788497 22.6877793,52.9785097 L22.6767282,52.8144197 L21.0015524,4.84366004 C20.9552937,3.51898409 21.9483508,2.39908942 23.2486907,2.2689853 L23.4127807,2.25793424 L59.3908505,1.00155235 C60.7155264,0.955293651 61.8354211,1.94835077 61.9655252,3.24869071 Z M59.431,9.431 L30.4314488,9.43144877 C29.9186129,9.43144877 29.4959416,9.81748896 29.4381765,10.3148276 L29.4314488,10.4314488 L29.4314488,58.4314488 C29.4314488,58.9442846 29.817489,59.3669559 30.3148276,59.424721 L30.4314488,59.4314488 L66.4314488,59.4314488 C66.9442846,59.4314488 67.3669559,59.0454086 67.424721,58.5480699 L67.4314488,58.4314488 L67.431,17.431 L59.4314488,17.4314488 L59.431,9.431 Z M37.2275545,6.00094318 C36.4483334,5.97373218 35.7872098,6.54589593 35.688023,7.30354781 L35.676119,7.44768018 L35.676,8.431 L60.4314488,8.43144877 L68.4314488,16.4314488 L68.431,58.121 L71.4257499,58.2262572 C72.2049711,58.2534682 72.8660946,57.6813045 72.9652815,56.9236526 L72.9771854,56.7795202 L74.6523613,8.80876055 C74.6795723,8.0295394 74.1074085,7.36841587 73.3497567,7.26922904 L73.2056243,7.25732506 L37.2275545,6.00094318 Z M59.4257499,2.00094318 L23.4476802,3.25732506 C22.668459,3.28453606 22.0488581,3.9014237 22.002764,4.6641489 L22.0009432,4.80876055 L23.676119,52.7795202 C23.70333,53.5587414 24.3202177,54.1783423 25.0829429,54.2244364 L25.2275545,54.2262572 L28.431,54.114 L28.4314488,10.4314488 C28.4314488,9.32687927 29.3268793,8.43144877 30.4314488,8.43144877 L34.676,8.431 L34.6767282,7.41278068 C34.7229869,6.08810473 35.7917449,5.04021022 37.0979929,5.00113017 L37.262454,5.00155235 L60.977,5.829 L60.9771854,3.44768018 C60.9499744,2.66845903 60.3330868,2.04885809 59.5703616,2.00276399 L59.4257499,2.00094318 Z M58.4314488,50.4314488 L58.4314488,51.4314488 L38.4314488,51.4314488 L38.4314488,50.4314488 L58.4314488,50.4314488 Z M58.4314488,45.4314488 L58.4314488,46.4314488 L38.4314488,46.4314488 L38.4314488,45.4314488 L58.4314488,45.4314488 Z M58.4314488,40.4314488 L58.4314488,41.4314488 L38.4314488,41.4314488 L38.4314488,40.4314488 L58.4314488,40.4314488 Z M58.4314488,35.4314488 L58.4314488,36.4314488 L38.4314488,36.4314488 L38.4314488,35.4314488 L58.4314488,35.4314488 Z M58.4314488,30.4314488 L58.4314488,31.4314488 L38.4314488,31.4314488 L38.4314488,30.4314488 L58.4314488,30.4314488 Z M60.431,9.846 L60.431,16.431 L67.016,16.431 L60.431,9.846 Z"></path></svg>